<?xml version="1.0" encoding="utf-8"?>
<!-- Generator: Adobe Illustrator 19.1.0, SVG Export Plug-In . SVG Version: 6.00 Build 0)  -->
<svg version="1.2" baseProfile="tiny" id="Layer_1" xmlns="http://www.w3.org/2000/svg" xmlns:xlink="http://www.w3.org/1999/xlink"
	 x="0px" y="0px" viewBox="169 -54 950 800" xml:space="preserve">
<g id="Original_Logo" display="none">
	<polygon id="XMLID_49_" display="inline" fill="#ED1C24" points="270.8,713 270.8,-12.1 361.7,-12.1 560.3,248.9 516,305 352,85.6 
		352,713 	"/>
	<polygon id="XMLID_50_" display="inline" fill="#ED1C24" points="387.4,-12.1 475.7,-12.1 622.3,170.3 577.2,227.5 	"/>
	<polygon id="XMLID_51_" display="inline" fill="#ED1C24" points="541.5,339.1 698,548.5 917.4,282.1 917.4,151.5 697.8,429.6 
		586,282.6 	"/>
	<polygon id="XMLID_52_" display="inline" fill="#ED1C24" points="1013.8,713.8 1013.4,-12.1 911.8,-12.1 698.5,265 648.7,203.1 
		603.4,260.6 698.5,380.6 939.4,89.4 940.5,713.8 	"/>
</g>
<g id="Original_Text" display="none">
	<path id="XMLID_62_" display="inline" fill="none" d="M797.7,739h-0.2c-1.1,4.4-2.2,10-3.4,14.2l-4.4,15.7H806l-4.6-15.7
		C800.1,748.8,798.8,743.3,797.7,739z"/>
	<path id="XMLID_60_" display="inline" fill="none" d="M618.8,739h-0.2c-1.1,4.4-2.2,10-3.4,14.2l-4.4,15.7h16.3l-4.6-15.7
		C621.2,748.8,619.9,743.3,618.8,739z"/>
	<path id="XMLID_59_" display="inline" fill="none" d="M1015.1,767.7h-5.7v20.8c1.6,0.2,3.6,0.2,6.5,0.2c7.6,0,14.2-3,14.2-10.7
		C1030.1,770.6,1023.4,767.7,1015.1,767.7z"/>
	<path id="XMLID_58_" display="inline" fill="none" d="M948.5,739h-0.2c-1.1,4.4-2.2,10-3.4,14.2l-4.4,15.7h16.3l-4.6-15.7
		C950.9,748.8,949.6,743.3,948.5,739z"/>
	<path id="XMLID_57_" display="inline" fill="none" d="M1014.9,755.7c8.9,0,13.5-3.6,13.5-9.1c0-5.6-4.3-8.5-11.8-8.5
		c-3.7,0-5.8,0.2-7.1,0.4v17.2l0,0L1014.9,755.7L1014.9,755.7z"/>
	<path id="XMLID_29_" display="inline" fill="#010101" d="M230.9,726.5l-7.8,24.5c-2.5,8.2-5,18-7,26.5h-0.4
		c-1.6-8.7-3.8-17.9-6.3-26.4l-7.2-24.7h-22.3l-4.7,73.9h15.5l1.4-28.1c0.4-9.2,0.9-20.6,1.2-30.6h0.2c1.9,9.6,4.3,20.1,6.7,28.9
		l7.9,28.5h13l9-28.8c2.9-8.7,5.9-19.2,8.3-28.6h0.2c0,10.7,0.3,21.5,0.7,30.4l1.2,28.3h16.2l-3.9-73.9L230.9,726.5L230.9,726.5z"/>
	<rect id="XMLID_28_" x="269.8" y="726.5" display="inline" fill="#010101" width="16.7" height="73.9"/>
	<polygon id="XMLID_27_" display="inline" fill="#010101" points="295.3,740.5 315.3,740.5 315.3,740.5 315.3,800.3 331.9,800.3 
		331.9,740.5 352.1,740.5 352.1,726.5 295.3,726.5 	"/>
	<path id="XMLID_26_" display="inline" fill="#010101" d="M395.5,739.1c6,0,10.7,1.3,14,2.7l3.5-13.2c-3-1.6-9.5-3.3-18.2-3.3
		c-22.4,0-40.3,13.9-40.3,39.1c0,21,13.1,37,38.7,37c8.9,0,15.9-1.7,18.9-3.2l-2.4-13.2c-3.4,1.4-8.9,2.4-14,2.4
		c-14.8,0-23.6-9.3-23.6-24.1C372,747.1,382.3,739.1,395.5,739.1z"/>
	<polygon id="XMLID_30_" display="inline" fill="#010101" points="467.4,754.9 439.9,754.9 439.9,726.5 423.2,726.5 423.2,800.3 
		439.9,800.3 439.9,769.4 467.4,769.4 467.4,800.3 484.1,800.3 484.1,726.5 467.4,726.5 	"/>
	<path id="XMLID_31_" display="inline" fill="#010101" d="M552.7,726.5l-7.8,24.5c-2.5,8.2-5,18-7,26.5h-0.4
		c-1.6-8.7-3.8-17.9-6.3-26.4l-7.2-24.7h-22.3l-4.7,73.9h15.5l1.4-28.1c0.4-9.2,0.9-20.6,1.2-30.6h0.2c1.9,9.6,4.3,20.1,6.7,28.9
		l7.9,28.5h13l9-28.8c2.9-8.7,5.9-19.2,8.3-28.6h0.2c0,10.7,0.3,21.5,0.7,30.4l1.2,28.3h16.2l-4-73.9L552.7,726.5L552.7,726.5z"/>
	<path id="XMLID_32_" display="inline" fill="#010101" d="M608.4,726.5l-22.5,73.9h17.2l5.3-19h21.2l5.7,19h18.1l-23-73.9H608.4z
		 M610.8,768.9l4.4-15.7c1.2-4.3,2.3-9.9,3.4-14.2h0.2c1.1,4.4,2.4,9.9,3.7,14.2l4.6,15.7H610.8z"/>
	<path id="XMLID_35_" display="inline" fill="#010101" d="M708.9,747.9c0,11.2,0.3,21.2,1.3,30.9H710c-3.4-8.3-7.7-17.5-12.1-25.3
		l-15.4-27.1H663v73.9l0,0h15.4v-22.2c0-12-0.2-22.5-0.8-32.3h0.5c3.5,8.6,8.4,18.2,12.8,26.1l15.8,28.5h17.5v-73.9h-15.4
		L708.9,747.9L708.9,747.9z"/>
	<rect id="XMLID_36_" x="738.9" y="726.5" display="inline" fill="#010101" width="16.7" height="73.9"/>
	<path id="XMLID_37_" display="inline" fill="#010101" d="M787.3,726.5l-22.5,73.9H782l5.3-19h21.2l5.7,19h18.1l-23-73.9H787.3z
		 M789.7,768.9l4.4-15.7c1.2-4.3,2.3-9.9,3.4-14.2h0.2c1.1,4.4,2.4,9.9,3.7,14.2l4.6,15.7H789.7z"/>
	<polygon id="XMLID_40_" display="inline" fill="#010101" points="880.9,726.5 864.3,726.5 864.3,800.3 910.3,800.3 910.3,786.3 
		880.9,786.3 	"/>
	<path id="XMLID_41_" display="inline" fill="#010101" d="M938.1,726.5l-22.5,73.9h17.2l5.3-19h21.2l5.7,19h18l-23-73.9H938.1z
		 M940.5,768.9l4.4-15.7c1.2-4.3,2.3-9.9,3.4-14.2h0.2c1.1,4.4,2.4,9.9,3.7,14.2l4.6,15.7H940.5z"/>
	<path id="XMLID_44_" display="inline" fill="#010101" d="M1032.9,760.6v-0.2c8.3-3.2,12.2-9.2,12.2-15.7c0-6.8-3.6-11.8-8.8-14.6
		c-5.5-3.2-11.7-4.2-21.9-4.2c-8.4,0-17.2,0.8-21.6,1.5V800c3.7,0.5,9.9,1.1,18.1,1.1c14.7,0,23.7-2.4,29.1-6.7
		c4.6-3.7,7.7-9,7.7-15.8C1047.6,769.2,1041.4,762.8,1032.9,760.6z M1009.4,738.5c1.3-0.2,3.4-0.4,7.1-0.4c7.6,0,11.8,3,11.8,8.5
		s-4.6,9.1-13.5,9.1h-5.5l0,0L1009.4,738.5L1009.4,738.5z M1015.8,788.7c-2.9,0-4.8,0-6.5-0.2v-20.8h5.7c8.3,0,15,3,15,10.3
		C1030.1,785.8,1023.4,788.7,1015.8,788.7z"/>
	<path id="XMLID_48_" display="inline" fill="#010101" d="M1087.8,756.5c-9.6-3.6-13.7-5.7-13.7-10.4c0-3.7,3.5-7.1,10.7-7.1
		c7.1,0,12.5,2.1,15.3,3.5l3.7-13.4c-4.4-2.1-10.4-3.7-18.9-3.7c-17.3,0-28,9.5-28,22.1c0,10.7,8.1,17.5,20.4,21.9
		c8.9,3.1,12.4,5.7,12.4,10.3c0,4.8-4,8-11.7,8c-7.1,0-14.1-2.3-18.5-4.6l-3.4,13.7c4.2,2.3,12.5,4.6,20.9,4.6
		c20.3,0,29.7-10.5,29.7-22.9C1106.9,768.1,1100.9,761.3,1087.8,756.5z"/>
</g>
<g id="Guides" display="none">
</g>
<g id="Artboard_Guides">
</g>
<g id="Left">
	<polygon id="XMLID_7_" points="349,696 269,696 269,-4 369,-4 566.1,252.8 516.1,318 349,100.2 	"/>
</g>
<g id="Left_Up">
	<polygon id="XMLID_1_" points="399,-4 499,-4 631.3,167.9 581.1,233.3 	"/>
</g>
<g id="Right_Up">
	<polygon id="XMLID_11_" points="939,77.2 939,696 1019,696 1019,-4 901.3,-4 700.2,258.1 646,187.6 596,252.8 700.2,388.4 	"/>
</g>
<g id="Right_Down">
	<polygon id="XMLID_10_" points="915.3,147.2 700.2,427.5 581.1,272.4 531.1,337.5 700.2,557.8 915.3,277.2 	"/>
</g>
<g id="Nexa_Original" display="none">
	<text transform="matrix(1 0 0 1 167.1557 795.9999)" display="inline" fill="#ED1C24" font-family="'ArialMT'" font-size="100px">M</text>
	<text transform="matrix(1 0 0 1 247.5542 795.9999)" display="inline" fill="#ED1C24" font-family="'ArialMT'" font-size="100px">I</text>
	<text transform="matrix(1 0 0 1 271.4541 795.9999)" display="inline" fill="#ED1C24" font-family="'ArialMT'" font-size="100px">T</text>
	<text transform="matrix(1 0 0 1 318.4541 795.9999)" display="inline" fill="#ED1C24" font-family="'ArialMT'" font-size="100px">C</text>
	<text transform="matrix(1 0 0 1 376.4531 795.9999)" display="inline" fill="#ED1C24" font-family="'ArialMT'" font-size="100px">H</text>
	<text transform="matrix(1 0 0 1 441.6523 795.9999)" display="inline" fill="#ED1C24" font-family="'ArialMT'" font-size="100px">M</text>
	<text transform="matrix(1 0 0 1 521.0512 795.9999)" display="inline" fill="#ED1C24" font-family="'ArialMT'" font-size="100px">A</text>
	<text transform="matrix(1 0 0 1 582.2514 795.9999)" display="inline" fill="#ED1C24" font-family="'ArialMT'" font-size="100px">N</text>
	<text transform="matrix(1 0 0 1 648.0503 795.9999)" display="inline" fill="#ED1C24" font-family="'ArialMT'" font-size="100px">I</text>
	<text transform="matrix(1 0 0 1 671.9497 795.9999)" display="inline" fill="#ED1C24" font-family="'ArialMT'" font-size="100px">A</text>
	<text transform="matrix(1 0 0 1 733.1498 795.9999)" display="inline" fill="#ED1C24" font-family="'ArialMT'" font-size="100px"> </text>
	<text transform="matrix(1 0 0 1 754.3491 795.9999)" display="inline" fill="#ED1C24" font-family="'ArialMT'" font-size="100px">L</text>
	<text transform="matrix(1 0 0 1 801.5473 795.9999)" display="inline" fill="#ED1C24" font-family="'ArialMT'" font-size="100px">A</text>
	<text transform="matrix(1 0 0 1 862.7475 795.9999)" display="inline" fill="#ED1C24" font-family="'ArialMT'" font-size="100px">B</text>
	<text transform="matrix(1 0 0 1 916.9467 795.9999)" display="inline" fill="#ED1C24" font-family="'ArialMT'" font-size="100px">S</text>
</g>
<g id="Nexa_Taller" display="none">
	<g id="XMLID_3_" display="inline">
		<path id="XMLID_15_" d="M240.4,741.2L217.7,774h-2.6L193,741.1v55h-13.1v-75.6H195l21.8,32.5l21.8-32.5h15v75.6h-13.2V741.2z"/>
		<path id="XMLID_17_" d="M266,796v-75.6h13V796H266z"/>
		<path id="XMLID_24_" d="M312.5,733.4h-22.1v-13c20.1,0,37.1,0,57.3,0v13h-22.1V796h-13.1V733.4L312.5,733.4z"/>
		<path id="XMLID_55_" d="M417,786.5c-7.2,7.7-16.4,11.2-26.4,11.2c-25.8,0-36.8-19.3-36.9-39c-0.1-19.8,11.7-39.9,36.9-39.9
			c9.4,0,18.4,3.9,25.5,11.6l-8.7,9.2c-4.6-4.9-10.7-7.1-16.8-7.1c-16.8,0-24.1,13.6-24,26.2c0.1,12.5,6.8,25.6,24,25.6
			c6.1,0,12.9-2.7,17.5-7.7L417,786.5z"/>
		<path id="XMLID_64_" d="M471.8,796.1v-30.6h-34.2v30.6h-13.1v-75.6h13.1v31.9h34.2v-31.9h13v75.6H471.8z"/>
		<path id="XMLID_66_" d="M557.8,741.2L535.1,774h-2.6l-22.2-32.9v55h-13.1v-75.6h15.1l21.8,32.5l21.8-32.5h15v75.6h-13.1
			L557.8,741.2L557.8,741.2z"/>
		<path id="XMLID_68_" d="M632.6,781.7h-36.4l-6,14.3H576l31.2-75.6h14.3l31.2,75.6h-14.3L632.6,781.7z M614.4,736.3l-12.9,32.2
			h25.8L614.4,736.3z"/>
		<path id="XMLID_71_" d="M704.5,720.3h13.1V796h-8.2v0.1L672.9,745v51h-13.1v-75.6h10.6l34.1,46.9V720.3z"/>
		<path id="XMLID_73_" d="M729.7,796v-75.6h13V796H729.7z"/>
		<path id="XMLID_75_" d="M804.5,781.7h-36.4l-6,14.3h-14.2l31.2-75.6h14.3l31.2,75.6h-14.3L804.5,781.7z M786.3,736.3l-12.9,32.2
			h25.8L786.3,736.3z"/>
		<path id="XMLID_78_" d="M862.8,720.4v62.4h35.8V796h-48.9v-75.6H862.8z"/>
		<path id="XMLID_80_" d="M957.2,781.7h-36.4l-6,14.3h-14.2l31.2-75.6h14.3l31.2,75.6H963L957.2,781.7z M939,736.3l-12.9,32.2h25.8
			L939,736.3z"/>
		<path id="XMLID_83_" d="M1038.8,742.3c0,5.8-2.6,11.4-9,14.6c8.2,2.7,11.1,12.1,11.1,16.8c0,16.8-11.6,22.2-26,22.2
			c-11,0-22,0-33,0v-75.6c10.9,0,22,0,33,0C1028.6,720.4,1038.8,727.1,1038.8,742.3z M994.8,750.7h20.1c8.3,0,10.9-3.8,10.9-8.1
			c0-3.5-2.6-9.3-10.9-9.3h-20.1V750.7z M994.8,782.7h20.1c5.4,0,13-1.9,13-9.1c0-6.8-7.7-10.4-13-10.4h-20.1V782.7z"/>
		<path id="XMLID_87_" d="M1095.2,738.7c-2.4-4.3-8.9-8.4-16.5-8.4c-9.7,0-14.4,4.4-14.4,10c0,6.6,7.2,8.4,15.5,9.5
			c14.5,1.9,28,6,28,24.1c0,16.8-13.7,24.1-29.2,24.1c-14.2,0-25.2-4.8-30.3-18.6l10.9-6.2c3.1,8.3,11.1,12,19.6,12
			c8.3,0,16-3.1,16-11.3c0-7.1-6.9-10-16.1-11.1c-14.2-1.8-27.3-5.9-27.3-22.9c0-15.6,14.1-21.9,26.9-22c10.8,0,22.1,3.3,27.3,15
			L1095.2,738.7z"/>
	</g>
</g>
</svg>
